<svg width="64" height="64" viewBox="0 0 64 64" fill="none" xmlns="http://www.w3.org/2000/svg">
<rect width="64" height="64" fill="#E95678"/>
<path d="M64 64H0L64 0V64Z" fill="#B94560"/>
<rect x="5" y="5" width="54" height="54" fill="#0B0C0F"/>
<path d="M26.1648 17.8693C25.7386 13.6932 22.6278 11.3068 18.4091 11.3068C13.7557 11.3068 10.1335 14.5028 10.1335 20.2727C10.1335 26.017 13.6704 29.2386 18.4091 29.2386C23.1989 29.2386 25.8494 25.983 26.1648 22.8892L21.9034 22.8636C21.6051 24.5426 20.3437 25.5398 18.4943 25.5398C16.0057 25.5398 14.4375 23.7415 14.4375 20.2727C14.4375 16.9403 15.9716 15.0057 18.5199 15.0057C20.4375 15.0057 21.6903 16.1222 21.9034 17.8693H26.1648Z" fill="#FFFEFE"/>
<path d="M29.2862 29H33.6243L40.6896 14.9716V11.5455H28.093V14.946H36.326V15.0568L29.2862 29Z" fill="#FFFEFE"/>
<path d="M43.0398 29H54.5199V25.5739H47.2585V11.5455H43.0398V29Z" fill="#FFFEFE"/>
<path d="M19 35L21.4697 42.6008H29.4616L22.996 47.2984L25.4656 54.8992L19 50.2016L12.5344 54.8992L15.004 47.2984L8.53838 42.6008H16.5303L19 35Z" fill="white"/>
</svg>
